<svg aria-hidden="true" style="position: absolute; width: 0; height: 0; overflow: hidden;" version="1.1" xmlns="http://www.w3.org/2000/svg" xmlns:xlink="http://www.w3.org/1999/xlink">
<defs>
<symbol id="icon-car" viewBox="0 0 32 32">
<path d="M6.817 3.699c-0.643 0.15-1.463 0.752-1.791 1.326-0.089 0.15-0.718 1.778-1.395 3.61l-1.238 3.337-0.882 0.868c-0.725 0.711-0.916 0.95-1.094 1.32-0.431 0.923-0.424 0.821-0.403 6.68l0.021 5.313 0.157 0.39c0.301 0.745 0.896 1.34 1.641 1.641 0.369 0.15 0.485 0.157 1.928 0.157 1.45 0 1.559-0.007 1.935-0.157 0.745-0.301 1.333-0.909 1.641-1.682 0.109-0.28 0.144-0.554 0.171-1.361l0.027-1.005h16.93l0.027 1.005c0.027 0.834 0.062 1.080 0.185 1.402 0.287 0.738 0.882 1.34 1.634 1.641 0.369 0.15 0.485 0.157 1.928 0.157 1.45 0 1.559-0.007 1.935-0.157 0.738-0.301 1.326-0.896 1.648-1.682 0.144-0.342 0.144-0.444 0.164-5.75 0.014-4.759 0.007-5.463-0.089-5.901-0.171-0.766-0.492-1.333-1.203-2.106l-0.622-0.684-1.244-3.35c-0.684-1.839-1.313-3.48-1.402-3.638-0.191-0.369-0.636-0.827-1.039-1.060-0.691-0.403-0.273-0.39-10.215-0.383-5.005 0.007-9.21 0.034-9.354 0.068zM25.361 5.060c0.315 0.089 0.636 0.321 0.814 0.574 0.123 0.185 2.27 5.853 2.27 6.003 0 0.027-0.349 0.055-0.779 0.055h-0.773l-0.089-0.431c-0.157-0.732-0.622-1.559-1.224-2.154-0.588-0.595-1.067-0.903-1.785-1.149-2.195-0.766-4.663 0.226-5.696 2.291-0.178 0.342-0.356 0.814-0.403 1.032l-0.082 0.41h-6.831c-5.436 0-6.824-0.021-6.797-0.089 0.014-0.041 0.499-1.34 1.067-2.872 0.568-1.538 1.080-2.879 1.135-2.988 0.13-0.246 0.554-0.602 0.821-0.677 0.287-0.089 18.058-0.096 18.352-0.007zM22.735 9.094c1.039 0.15 2.003 0.855 2.455 1.805 0.13 0.267 0.26 0.554 0.28 0.636l0.041 0.157h-6.516l0.041-0.191c0.103-0.438 0.485-1.073 0.875-1.463 0.465-0.465 1.162-0.834 1.764-0.937 0.513-0.082 0.52-0.082 1.060-0.007zM29.641 13.614c0.356 0.369 0.595 0.697 0.738 1.005l0.219 0.458 0.020 3.214c0.020 2.817 0.007 3.248-0.089 3.501-0.164 0.417-0.356 0.636-0.745 0.814l-0.349 0.164h-26.872l-0.349-0.164c-0.397-0.185-0.656-0.492-0.78-0.896-0.055-0.191-0.068-1.156-0.055-3.316 0.027-3.754-0.034-3.487 1.094-4.602l0.745-0.732h25.887l0.533 0.554zM2.085 24.027c0.315 0.089 0.8 0.109 2.243 0.109h1.839l-0.027 0.909c-0.021 0.882-0.027 0.93-0.226 1.244-0.15 0.246-0.308 0.39-0.574 0.526-0.362 0.191-0.383 0.191-1.579 0.191s-1.217 0-1.579-0.191c-0.267-0.137-0.424-0.28-0.574-0.526-0.205-0.328-0.205-0.342-0.226-1.45l-0.020-1.121 0.157 0.103c0.089 0.055 0.342 0.15 0.568 0.205zM30.448 26.188c-0.144 0.273-0.28 0.424-0.526 0.581l-0.335 0.205-2.544 0.041-0.376-0.191c-0.273-0.144-0.431-0.287-0.581-0.533-0.198-0.315-0.205-0.362-0.226-1.244l-0.027-0.909h1.839c1.873 0 2.421-0.062 2.79-0.301 0.137-0.089 0.137-0.075 0.157 0.944 0.020 1.012 0.014 1.039-0.171 1.409z"></path>
<path d="M3.562 15.891c-0.328 0.185-0.342 0.287-0.349 2.352 0 2.099 0.021 2.229 0.376 2.393 0.28 0.13 5.518 0.116 5.771-0.014 0.328-0.171 0.349-0.308 0.349-2.366s-0.021-2.195-0.349-2.366c-0.267-0.137-5.552-0.137-5.798 0zM8.342 18.256v1.094h-3.761v-2.188h3.761v1.094z"></path>
<path d="M22.639 15.891c-0.328 0.185-0.342 0.287-0.349 2.352 0 2.099 0.020 2.229 0.376 2.393 0.28 0.13 5.518 0.116 5.771-0.014 0.328-0.171 0.349-0.308 0.349-2.366s-0.020-2.195-0.349-2.366c-0.267-0.137-5.552-0.137-5.798 0zM27.419 18.256v1.094h-3.761v-2.188h3.761v1.094z"></path>
<path d="M12.362 16.656c-0.232 0.123-0.328 0.294-0.328 0.574 0 0.287 0.103 0.458 0.342 0.581 0.301 0.157 6.947 0.157 7.248 0 0.239-0.123 0.342-0.294 0.342-0.581s-0.103-0.458-0.342-0.581c-0.294-0.15-6.981-0.15-7.262 0.007z"></path>
<path d="M12.362 18.776c-0.232 0.123-0.328 0.294-0.328 0.574 0 0.287 0.103 0.458 0.342 0.581 0.301 0.157 6.947 0.157 7.248 0 0.239-0.123 0.342-0.294 0.342-0.581s-0.103-0.458-0.342-0.581c-0.294-0.15-6.981-0.15-7.262 0.007z"></path>
</symbol>
<symbol id="icon-cycling" viewBox="0 0 32 32">
<path d="M7.801 2.682c-0.398 0.186-0.578 0.372-0.757 0.77-0.266 0.584-0.146 1.195 0.332 1.673 0.385 0.385 0.611 0.451 1.593 0.451h0.77l0.445 0.976 0.445 0.969-0.133 0.305c-0.073 0.166-0.518 1.129-0.996 2.131-0.664 1.401-0.896 1.826-0.989 1.819-0.060-0.007-0.292-0.060-0.511-0.12-1.753-0.478-3.678-0.153-5.225 0.896-1.627 1.109-2.662 2.968-2.755 4.973-0.153 3.1 2.005 5.856 5.092 6.513l0.564 0.119h-2.835l-2.841 0.007v1.062h31.867v-1.062h-2.304l-2.31-0.007 0.345-0.126c1.739-0.624 3.12-1.879 3.837-3.485 1.109-2.49 0.511-5.464-1.467-7.343-1.646-1.554-4.136-2.171-6.201-1.527-0.239 0.073-0.445 0.113-0.471 0.086-0.060-0.066-3.313-7.137-3.313-7.203 0-0.027 0.724-0.046 1.613-0.046 1.832 0 1.972 0.033 2.197 0.485 0.153 0.325 0.1 0.624-0.159 0.876-0.166 0.159-0.279 0.199-0.644 0.239-0.345 0.033-0.471 0.080-0.564 0.193-0.173 0.212-0.153 0.505 0.046 0.697 0.325 0.325 1.288 0.179 1.819-0.279 0.651-0.551 0.83-1.481 0.438-2.244-0.126-0.246-0.305-0.478-0.485-0.611-0.511-0.392-0.73-0.418-3.081-0.418-3.014 0-2.928-0.086-1.972 1.978 0.332 0.717 0.651 1.407 0.697 1.52l0.093 0.219h-8.345l-0.345-0.75c-0.186-0.405-0.339-0.763-0.339-0.797 0-0.027 0.153-0.046 0.332-0.046 1.321 0 1.945-1.514 0.976-2.37-0.126-0.113-0.332-0.239-0.458-0.279-0.226-0.066-3.081-0.405-3.459-0.405-0.12 0-0.359 0.073-0.544 0.159zM9.959 3.751c0.783 0.093 1.467 0.166 1.514 0.166 0.139 0 0.239 0.292 0.153 0.458-0.073 0.139-0.113 0.139-1.713 0.139-1.593 0-1.64-0.007-1.793-0.146-0.193-0.179-0.193-0.432-0.007-0.631 0.173-0.186 0.1-0.186 1.846 0.013zM19.837 8.292c-0.007 0.033-0.803 1.713-1.766 3.731l-1.739 3.678h-0.783l-1.673-3.651c-0.923-2.012-1.693-3.691-1.706-3.738-0.027-0.060 0.764-0.080 3.831-0.080 2.251 0 3.851 0.027 3.837 0.060zM12.926 12.528l1.666 3.638-0.199 0.199c-0.113 0.106-0.279 0.358-0.365 0.544l-0.159 0.352h-1.168l-0.040-0.392c-0.053-0.485-0.332-1.374-0.598-1.899-0.465-0.923-1.281-1.872-2.085-2.41l-0.412-0.279 0.803-1.693c0.445-0.929 0.823-1.693 0.85-1.693s0.79 1.633 1.706 3.632zM21.57 10.589c0.405 0.87 0.737 1.607 0.737 1.64 0 0.027-0.173 0.159-0.378 0.292-0.584 0.372-1.593 1.427-1.952 2.051-0.604 1.049-0.843 1.852-0.903 3.054-0.133 2.828 1.6 5.424 4.269 6.373l0.458 0.159h-8.398c-7.336-0.007-8.332-0.020-7.894-0.1 1.534-0.272 3.001-1.182 3.957-2.443 0.598-0.79 1.215-2.35 1.215-3.081v-0.212h1.168l0.146 0.319c0.339 0.744 0.969 1.195 1.759 1.255 0.896 0.073 1.653-0.352 2.051-1.155 0.193-0.392 0.219-0.518 0.219-0.949 0-0.578-0.146-0.956-0.511-1.368l-0.232-0.259 1.726-3.638c0.949-1.998 1.753-3.612 1.779-3.585s0.378 0.77 0.783 1.646zM7.622 12.647c0.445 0.1 0.485 0.126 0.451 0.252-0.020 0.080-0.531 1.188-1.135 2.463s-1.095 2.383-1.095 2.476c0 0.086 0.073 0.232 0.166 0.319l0.159 0.166h5.471l-0.046 0.365c-0.1 0.89-0.71 2.078-1.441 2.815-0.677 0.684-1.295 1.056-2.251 1.368-0.505 0.166-0.664 0.186-1.494 0.193-0.777 0.007-1.016-0.020-1.447-0.146-1.746-0.505-3.047-1.739-3.645-3.466-0.206-0.604-0.212-0.677-0.219-1.627 0-0.863 0.020-1.062 0.153-1.494 0.631-1.998 2.131-3.353 4.163-3.758 0.571-0.113 1.547-0.080 2.211 0.073zM26.29 12.548c2.138 0.339 3.851 1.905 4.382 4.010 0.179 0.717 0.179 1.819 0 2.536-0.385 1.527-1.467 2.848-2.888 3.519-0.85 0.398-1.374 0.511-2.29 0.511-1.54-0.007-2.841-0.571-3.897-1.7-1.892-2.025-1.879-5.198 0.027-7.223 0.418-0.445 1.003-0.923 1.129-0.923 0.033 0 0.558 1.089 1.175 2.423 0.671 1.454 1.175 2.47 1.261 2.523 0.305 0.219 0.837-0.013 0.837-0.365 0-0.080-0.505-1.241-1.129-2.589-0.617-1.348-1.129-2.463-1.129-2.483 0-0.027 0.73-0.199 1.129-0.259 0.339-0.053 0.976-0.046 1.394 0.020zM10.124 14.108c0.485 0.478 0.664 0.717 0.91 1.195 0.312 0.604 0.584 1.434 0.584 1.773v0.186h-2.191c-1.202 0-2.191-0.013-2.191-0.027s0.332-0.724 0.737-1.573c0.405-0.856 0.823-1.739 0.929-1.972l0.193-0.418 0.212 0.12c0.12 0.066 0.491 0.385 0.817 0.717zM16.378 16.863c0.432 0.193 0.677 0.684 0.591 1.168-0.066 0.319-0.471 0.73-0.79 0.79-0.398 0.073-0.71-0.020-0.983-0.292-0.398-0.398-0.432-0.989-0.080-1.407 0.332-0.392 0.777-0.485 1.261-0.259z"></path>
<path d="M2.463 16.385c-0.319 0.319-0.432 1.388-0.239 2.304 0.212 1.009 1.069 2.29 1.534 2.29 0.232 0 0.471-0.199 0.531-0.438 0.033-0.119-0.007-0.232-0.133-0.412-0.1-0.133-0.279-0.385-0.405-0.564-0.485-0.684-0.644-1.56-0.471-2.649 0.053-0.352 0.046-0.385-0.113-0.544-0.226-0.226-0.471-0.219-0.704 0.013z"></path>
<path d="M4.953 20.999c-0.325 0.332-0.166 0.764 0.339 0.91 0.139 0.040 0.478 0.086 0.763 0.113 0.485 0.040 0.511 0.033 0.677-0.133 0.186-0.186 0.212-0.345 0.1-0.604-0.093-0.193-0.292-0.279-0.79-0.339-0.199-0.020-0.491-0.060-0.644-0.080-0.232-0.033-0.299-0.013-0.445 0.133z"></path>
<path d="M25.633 13.783c-0.266 0.339-0.113 0.77 0.305 0.856 0.106 0.027 0.365 0.1 0.591 0.173 0.518 0.166 0.77 0.159 0.923-0.007 0.159-0.173 0.159-0.551 0.007-0.717-0.146-0.166-1.082-0.478-1.427-0.478-0.206 0-0.292 0.040-0.398 0.173z"></path>
<path d="M28.315 15.217c-0.372 0.199-0.378 0.412-0.040 1.082 0.345 0.671 0.451 1.275 0.345 1.959-0.106 0.724-0.1 0.837 0.1 0.989 0.372 0.292 0.757 0.086 0.896-0.471 0.053-0.193 0.086-0.664 0.086-1.049-0.007-0.571-0.040-0.79-0.186-1.222-0.212-0.617-0.451-1.049-0.684-1.235-0.193-0.146-0.325-0.166-0.518-0.053z"></path>
<path d="M0.697 28.581c-0.106 0.1-0.166 0.239-0.166 0.365s0.060 0.266 0.166 0.365l0.159 0.166h6.785l0.173-0.173c0.139-0.139 0.159-0.212 0.126-0.412-0.073-0.498 0.086-0.478-3.705-0.478h-3.379l-0.159 0.166z"></path>
<path d="M11.851 28.581c-0.106 0.1-0.166 0.239-0.166 0.365s0.060 0.266 0.166 0.365l0.159 0.166h3.91c3.791 0 3.91-0.007 4.043-0.133 0.080-0.066 0.159-0.193 0.186-0.266 0.066-0.199-0.080-0.498-0.272-0.591-0.119-0.053-1.295-0.073-4.017-0.073h-3.851l-0.159 0.166z"></path>
<path d="M24.066 28.581c-0.106 0.1-0.166 0.239-0.166 0.365s0.060 0.266 0.166 0.365l0.159 0.166h3.379c3.26 0 3.379-0.007 3.512-0.133 0.080-0.066 0.159-0.193 0.186-0.266 0.066-0.199-0.080-0.498-0.272-0.591-0.119-0.053-1.162-0.073-3.485-0.073h-3.32l-0.159 0.166z"></path>
</symbol>
<symbol id="icon-hiking" viewBox="0 0 32 32">
<path d="M8.033 0.1c-1.793 0.333-3.367 1.507-4.167 3.1-0.133 0.273-0.287 0.62-0.333 0.767-0.113 0.353-0.16 0.407-0.413 0.46-0.12 0.020-0.467 0.167-0.773 0.313-1.32 0.64-2.24 2.040-2.327 3.553-0.12 2.113 1.353 4.013 3.407 4.407 0.76 0.147 1.013 0.133 1.207-0.067 0.34-0.34 0.1-0.9-0.387-0.9-0.787 0-1.62-0.36-2.233-0.973-1.227-1.227-1.247-3.167-0.033-4.433 1.207-1.267 3.207-1.313 4.48-0.093 0.6 0.573 1.007 1.467 1.007 2.22 0 0.36 0.22 0.613 0.533 0.613 0.327 0 0.533-0.253 0.533-0.647-0.007-1.507-1-3.027-2.433-3.72-0.36-0.173-1.28-0.433-1.527-0.433-0.080 0 0.313-0.773 0.587-1.16 0.68-0.947 1.687-1.627 2.84-1.913 0.473-0.12 1.667-0.12 2.127 0 1.9 0.48 3.287 1.927 3.647 3.793 0.053 0.267 0.093 0.627 0.093 0.787 0 0.373 0.22 0.627 0.533 0.627 0.327 0 0.533-0.253 0.533-0.653 0-0.96-0.38-2.193-0.947-3.060-1.293-1.98-3.667-3.013-5.953-2.587z"></path>
<path d="M23.673 8.967c-1.32 0.287-2.113 0.74-3.26 1.867-0.593 0.58-0.68 0.693-0.68 0.887 0 0.293 0.253 0.547 0.54 0.547 0.18 0 0.32-0.107 0.887-0.66 0.747-0.72 1.113-0.993 1.727-1.273 0.867-0.387 1.98-0.5 2.947-0.3 0.547 0.113 1.56 0.593 1.92 0.913l0.253 0.22-0.533 0.427c-0.293 0.233-0.547 0.467-0.567 0.52-0.080 0.207-0.033 0.433 0.127 0.587 0.273 0.28 0.48 0.227 1.14-0.307 0.673-0.547 0.907-0.66 1.307-0.66 1.113 0 1.833 1.46 1.227 2.5-0.227 0.387-1.027 1.073-1.353 1.16-0.16 0.047-1.333 0.073-3.173 0.073h-2.92l-0.16 0.167c-0.22 0.213-0.22 0.52 0 0.733l0.16 0.167h2.993c3.32 0 3.4-0.007 4.053-0.44 0.853-0.567 1.447-1.34 1.62-2.1 0.38-1.627-0.793-3.24-2.387-3.3-0.44-0.020-0.52-0.040-0.7-0.213-1.167-1.080-2.54-1.62-4.093-1.607-0.36 0-0.84 0.047-1.073 0.093z"></path>
<path d="M16.213 9.713c-0.073 0.067-1.42 2.827-2.987 6.133-1.573 3.307-2.86 6.007-2.873 5.993-0.013-0.007-0.44-1.153-0.953-2.547-0.607-1.64-0.987-2.567-1.073-2.647-0.080-0.060-0.227-0.113-0.327-0.113s-0.247 0.053-0.32 0.113c-0.173 0.153-7.147 14.647-7.147 14.86 0 0.093 0.073 0.24 0.167 0.327l0.16 0.167h30.28l0.16-0.167c0.093-0.087 0.167-0.233 0.167-0.313 0-0.267-3.787-9.94-3.94-10.073-0.153-0.127-0.407-0.147-0.587-0.047-0.067 0.033-0.567 0.793-1.113 1.693-0.547 0.893-1.013 1.607-1.040 1.587-0.020-0.027-1.787-3.38-3.92-7.447-2.133-4.073-3.94-7.453-4.013-7.52-0.073-0.060-0.22-0.113-0.32-0.113s-0.247 0.053-0.32 0.113zM18.66 15.32c1.1 2.107 2.007 3.833 2.007 3.847 0 0.080-1.5 1.867-1.567 1.86-0.040-0.007-0.713-0.54-1.493-1.187-1.173-0.98-1.447-1.173-1.62-1.173-0.187 0-0.367 0.153-1.433 1.213l-1.22 1.22-0.48-0.48-0.48-0.487 0.167-0.347c0.093-0.193 1.040-2.18 2.093-4.407 1.133-2.38 1.947-4.013 1.973-3.967s0.947 1.807 2.053 3.907zM8.847 20.88l0.867 2.347-0.227 0.507c-0.127 0.273-0.253 0.527-0.287 0.56-0.027 0.027-0.287-0.020-0.58-0.12-0.287-0.093-0.593-0.173-0.68-0.173-0.113 0-0.353 0.193-0.8 0.633-0.36 0.347-0.667 0.633-0.687 0.633-0.073 0-1.087-1.413-1.067-1.487 0.047-0.18 2.507-5.247 2.547-5.247 0.027 0 0.433 1.060 0.913 2.347zM17.44 21.087l1.267 1.053 0.247 2.033c0.14 1.127 0.287 2.107 0.32 2.187 0.040 0.080 0.647 0.607 1.36 1.173l1.287 1.027 0.173 1.073c0.093 0.593 0.173 1.127 0.173 1.187 0 0.107-0.387 0.113-5.567 0.113-3.060 0-5.567-0.013-5.567-0.033s0.493-0.827 1.093-1.787l1.1-1.747 0.26-2.627 0.26-2.62 1.093-1.093c0.653-0.653 1.113-1.067 1.16-1.040s0.647 0.52 1.34 1.1zM24.060 25.62l2.793 5.313h-3.453l-0.033-0.153c-0.020-0.080-0.127-0.7-0.233-1.38-0.113-0.68-0.22-1.28-0.24-1.347-0.020-0.060-0.58-0.547-1.253-1.080-0.673-0.54-1.267-1.027-1.313-1.087-0.060-0.067-0.187-0.833-0.333-1.98l-0.24-1.873 0.7-0.887c0.387-0.487 0.733-0.873 0.76-0.867 0.033 0.013 1.313 2.413 2.847 5.34zM12.533 24.567l-0.253 2.467-1.22 1.953-1.22 1.947h-1.293c-1.007 0-1.287-0.020-1.26-0.080 0.020-0.047 0.94-1.993 2.047-4.32s2.133-4.487 2.28-4.793l0.26-0.567 0.453 0.467 0.46 0.46-0.253 2.467zM27.5 24.113c0.213 0.547 0.5 1.273 0.633 1.62 0.14 0.347 0.247 0.64 0.233 0.653-0.007 0.007-0.287-0.053-0.627-0.133l-0.607-0.147-0.447 0.22-0.44 0.213-0.4-0.393-0.393-0.393 0.787-1.307c0.44-0.72 0.813-1.307 0.84-1.313 0.020 0 0.213 0.44 0.42 0.98zM5.433 25.733c0.613 0.833 0.72 0.933 0.987 0.933 0.167 0 0.333-0.127 0.973-0.76l0.773-0.76 0.28 0.1 0.273 0.093-0.32 0.68c-0.18 0.373-0.773 1.627-1.32 2.78l-1 2.1-2.073 0.020c-1.14 0.007-2.073 0.007-2.073-0.007s0.54-1.147 1.207-2.52c0.667-1.373 1.313-2.713 1.433-2.987 0.133-0.28 0.253-0.467 0.287-0.433 0.027 0.033 0.287 0.373 0.573 0.76zM28.12 27.447c0.393 0.093 0.72 0.18 0.733 0.187 0.027 0.020 1.28 3.233 1.28 3.273 0 0.020-0.473 0.020-1.047 0.013l-1.047-0.020-0.847-1.6-0.84-1.6 0.407-0.213c0.227-0.12 0.46-0.213 0.527-0.22 0.067 0 0.44 0.080 0.833 0.18z"></path>
<path d="M6.033 11.9c-0.107 0.1-0.167 0.24-0.167 0.367s0.060 0.267 0.167 0.367c0.153 0.16 0.187 0.167 1.167 0.167s1.013-0.007 1.167-0.167c0.107-0.1 0.167-0.24 0.167-0.367s-0.060-0.267-0.167-0.367c-0.153-0.16-0.187-0.167-1.167-0.167s-1.013 0.007-1.167 0.167z"></path>
</symbol>
<symbol id="icon-water" viewBox="0 0 32 32">
<path d="M8.559 8.004c-0.107 0.050-0.249 0.249-0.371 0.527-0.235 0.52-0.755 1.112-1.169 1.326-0.185 0.093-0.47 0.157-0.834 0.178-0.492 0.028-0.599 0.014-0.941-0.157-0.47-0.228-0.713-0.499-0.976-1.090-0.235-0.513-0.421-0.663-0.798-0.663-0.306 0-0.584 0.221-0.663 0.535-0.093 0.385 0.449 1.433 1.026 1.974 0.627 0.584 1.326 0.841 2.288 0.841 0.962-0.007 1.746-0.335 2.473-1.033l0.335-0.321 0.342 0.321c0.755 0.706 1.539 1.033 2.487 1.033 0.955 0 1.732-0.321 2.494-1.041l0.349-0.328 0.221 0.249c0.577 0.663 1.611 1.112 2.537 1.119 0.984 0 1.746-0.314 2.523-1.041l0.349-0.328 0.185 0.214c0.1 0.121 0.399 0.363 0.663 0.542 1.454 0.962 3.179 0.798 4.447-0.435l0.328-0.328 0.378 0.371c0.228 0.228 0.599 0.477 0.962 0.663 0.549 0.271 0.649 0.292 1.297 0.328 0.784 0.036 1.283-0.071 1.889-0.399 0.77-0.413 1.689-1.767 1.589-2.352-0.050-0.349-0.328-0.584-0.67-0.584-0.371 0-0.556 0.157-0.791 0.663-0.392 0.87-0.941 1.261-1.76 1.261-0.927 0-1.646-0.492-2.117-1.454-0.278-0.57-0.406-0.684-0.777-0.684-0.342 0-0.535 0.164-0.77 0.67-0.299 0.627-0.641 0.998-1.176 1.261-0.428 0.207-0.506 0.221-0.991 0.192-0.392-0.028-0.606-0.078-0.841-0.221-0.449-0.257-0.891-0.77-1.119-1.283-0.214-0.47-0.399-0.62-0.784-0.62-0.299 0-0.535 0.228-0.777 0.741-0.264 0.563-0.691 0.998-1.204 1.233-0.335 0.157-0.463 0.178-0.905 0.15-0.869-0.057-1.468-0.506-1.931-1.44-0.271-0.542-0.435-0.684-0.812-0.684-0.299 0-0.535 0.228-0.777 0.727-0.884 1.882-3.143 1.889-4.020 0.014-0.114-0.249-0.292-0.52-0.392-0.599-0.2-0.157-0.535-0.178-0.798-0.050z"></path>
<path d="M5.915 14.233c-0.214 0.078-0.363 0.271-0.584 0.72-0.428 0.898-1.133 1.39-2.017 1.397s-1.411-0.356-1.846-1.276c-0.242-0.506-0.435-0.677-0.763-0.677-0.371 0-0.706 0.349-0.706 0.734 0 0.321 0.556 1.326 0.941 1.718 1.276 1.269 3.407 1.254 4.796-0.043l0.42-0.392 0.385 0.378c0.763 0.741 1.931 1.133 2.908 0.969 0.656-0.107 1.411-0.485 1.917-0.955l0.428-0.399 0.442 0.413c1.433 1.34 3.542 1.283 4.896-0.135l0.285-0.292 0.392 0.378c0.741 0.706 1.468 1.005 2.43 1.005s1.689-0.299 2.43-1.005l0.392-0.378 0.285 0.292c0.805 0.841 1.967 1.24 3.1 1.069 1.098-0.171 1.96-0.82 2.466-1.846 0.349-0.698 0.356-1.019 0.036-1.304-0.456-0.413-0.898-0.228-1.247 0.527-0.406 0.87-0.934 1.226-1.832 1.219-0.855-0.007-1.525-0.456-1.96-1.333-0.314-0.627-0.421-0.748-0.713-0.805-0.378-0.071-0.649 0.121-0.891 0.641-0.955 2.017-3.179 2.017-4.134 0-0.242-0.52-0.513-0.713-0.891-0.641-0.292 0.057-0.399 0.178-0.713 0.805-0.435 0.877-1.105 1.326-1.96 1.333-0.87 0.007-1.596-0.506-2.031-1.425-0.285-0.599-0.527-0.784-0.927-0.713-0.285 0.057-0.421 0.2-0.677 0.748-0.413 0.87-1.147 1.383-1.996 1.39-0.884 0-1.639-0.542-2.074-1.49-0.257-0.57-0.584-0.777-0.991-0.627z"></path>
<path d="M8.51 20.654c-0.086 0.064-0.257 0.335-0.378 0.599-0.15 0.321-0.342 0.584-0.613 0.827-0.499 0.456-0.941 0.613-1.611 0.57-0.798-0.057-1.276-0.428-1.653-1.276-0.271-0.599-0.577-0.784-1.019-0.599-0.235 0.1-0.456 0.413-0.456 0.663 0 0.242 0.549 1.261 0.869 1.618 0.62 0.677 1.461 1.033 2.445 1.033 0.926 0 1.846-0.385 2.487-1.033l0.356-0.356 0.406 0.399c0.456 0.442 1.119 0.798 1.703 0.927 0.506 0.107 1.368 0.050 1.874-0.135 0.463-0.164 1.261-0.706 1.482-1.005l0.143-0.2 0.378 0.363c0.67 0.656 1.582 1.041 2.466 1.041 0.919-0.007 1.746-0.342 2.43-0.998l0.413-0.392 0.328 0.342c0.848 0.869 2.174 1.247 3.35 0.941 0.563-0.15 1.019-0.406 1.532-0.877l0.435-0.385 0.406 0.392c1.112 1.055 2.772 1.283 4.098 0.57 0.955-0.52 1.86-2.095 1.511-2.63-0.235-0.363-0.812-0.456-1.069-0.171-0.064 0.071-0.235 0.363-0.378 0.649-0.421 0.841-1.005 1.176-1.903 1.119-0.805-0.057-1.418-0.506-1.881-1.411-0.321-0.613-0.435-0.713-0.805-0.713-0.349 0-0.527 0.164-0.812 0.72-0.435 0.877-1.048 1.34-1.853 1.404-0.919 0.071-1.732-0.463-2.202-1.454-0.271-0.563-0.392-0.67-0.77-0.67-0.335 0-0.57 0.207-0.812 0.727-0.242 0.506-0.691 0.991-1.119 1.212-0.406 0.207-1.069 0.249-1.532 0.093-0.527-0.171-1.090-0.713-1.368-1.304-0.271-0.577-0.435-0.72-0.82-0.727-0.363 0-0.527 0.143-0.805 0.741-0.435 0.898-1.276 1.447-2.138 1.383-0.798-0.057-1.447-0.542-1.896-1.425-0.143-0.278-0.314-0.549-0.378-0.599-0.178-0.135-0.663-0.121-0.841 0.029z"></path>
</symbol>
</defs>
</svg>
